Coordinates
version=1
nRows=8
nColumns=40
inDegrees=yes

Units are S.I. units (second, meters, Newtons, ...)
Angles are in degrees.

endheader
time	pelvis_tilt	pelvis_list	pelvis_rotation	pelvis_tx	pelvis_ty	pelvis_tz	hip_flexion_r	hip_adduction_r	hip_rotation_r	knee_angle_r	knee_angle_r_beta	ankle_angle_r	subtalar_angle_r	mtp_angle_r	hip_flexion_l	hip_adduction_l	hip_rotation_l	knee_angle_l	knee_angle_l_beta	ankle_angle_l	subtalar_angle_l	mtp_angle_l	lumbar_extension	lumbar_bending	lumbar_rotation	arm_flex_r	arm_add_r	arm_rot_r	elbow_flex_r	pro_sup_r	wrist_flex_r	wrist_dev_r	arm_flex_l	arm_add_l	arm_rot_l	elbow_flex_l	pro_sup_l	wrist_flex_l	wrist_dev_l
     31.50000000	     -0.60998661	     -4.03767228	      2.90166793	      1.12970126	      0.93306521	      0.41920099	     27.25538097	     -8.02114705	     -4.19573649	     67.70375509	     67.70375509	     -3.25753386	    -13.56837750	      0.27997169	     14.12701467	     -5.33896222	     -5.97239133	     24.46752280	     24.46752280	     12.90092631	    -13.04546539	      0.28388841	    -10.92690856	      4.44721503	      2.10559338	      8.81142990	    -12.82769250	     -2.40005686	     45.99277806	     45.47804683	      0.00000000	      0.00000000	     15.56557028	    -14.55937667	      2.34258610	     47.28892312	     45.76483810	      0.00000000	      0.00000000
     31.51392857	     -0.65476844	     -4.31109018	      2.57945334	      1.12885986	      0.93380748	      0.41897019	     27.92399204	     -7.61228906	     -4.29964915	     65.87622030	     65.87622030	     -2.99033878	    -13.63727569	      0.18516168	     13.55232114	     -5.66251777	     -6.27308144	     24.06599715	     24.06599715	     13.14097360	    -12.77965020	      0.07404132	    -11.01437293	      4.83056751	      2.56649902	      7.03295426	    -12.88143783	     -2.17264463	     43.99682842	     45.53378415	      0.00000000	      0.00000000	     16.89466230	    -14.59888460	      2.10304778	     48.48502218	     45.82443653	      0.00000000	      0.00000000
     31.52785714	     -0.69653417	     -4.53137589	      2.24506844	      1.12803749	      0.93446583	      0.41888705	     28.46245653	     -7.27859968	     -4.50156858	     63.82804963	     63.82804963	     -2.61876552	    -13.61362345	      0.05138145	     12.94416494	     -5.93167814	     -6.61418184	     23.61783250	     23.61783250	     13.28351911	    -12.63630956	     -0.09427035	    -11.11669016	      5.08071072	      2.86448096	      5.52294632	    -12.79900034	     -1.94721383	     41.80151889	     45.59903518	      0.00000000	      0.00000000	     18.00270561	    -14.80765970	      1.82028684	     50.00200854	     45.88961038	      0.00000000	      0.00000000
     31.54178571	     -0.78615112	     -4.76288742	      1.94383358	      1.12719389	      0.93508085	      0.41873298	     28.89704810	     -6.94297180	     -4.78039653	     61.45470956	     61.45470956	     -2.26718938	    -13.44142885	      0.06561900	     12.38189067	     -6.17509455	     -6.85094463	     23.12907734	     23.12907734	     13.41919448	    -12.52958885	     -0.19746229	    -11.17234812	      5.41872356	      2.98174417	      4.04677427	    -12.66811141	     -1.74184117	     39.91222677	     45.65324515	      0.00000000	      0.00000000	     18.97786268	    -15.07276643	      1.52502687	     51.43327889	     45.94965881	      0.00000000	      0.00000000
     31.55571429	     -0.86796747	     -4.90781203	      1.56558261	      1.12635607	      0.93556099	      0.41879950	     29.20524705	     -6.60984675	     -4.95990816	     58.75164690	     58.75164690	     -2.09474380	    -13.30007743	     -0.62036928	     11.81526112	     -6.38231048	     -7.33251756	     22.67310766	     22.67310766	     13.32479120	    -12.36815998	     -0.99719934	    -11.26640884	      5.57737722	      2.19086526	      4.61898841	    -11.98696262	     -1.37656168	     34.17631390	     45.87145989	      0.00000000	      0.00000000	     18.51097562	    -16.11626633	      0.51677135	     55.40518422	     46.13243979	      0.00000000	      0.00000000
     31.56964286	     -1.00000119	     -5.03080036	      1.19019245	      1.12551631	      0.93597240	      0.41890317	     29.41446840	     -6.31044161	     -5.22749080	     55.69002679	     55.69002679	     -1.63085841	    -12.77551494	     -0.54473019	     11.27101698	     -6.49892787	     -7.57998521	     22.15242640	     22.15242640	     13.46454865	    -12.38352207	     -0.96423319	    -11.33042624	      5.75364773	      2.49011600	      3.10967633	    -12.00757764	     -1.22269368	     33.02289461	     45.89829360	      0.00000000	      0.00000000	     19.55044392	    -16.26732853	      0.04272576	     56.61891897	     46.20526102	      0.00000000	      0.00000000
     31.58357143	     -1.14486545	     -5.07250475	      0.77190704	      1.12471914	      0.93621969	      0.41916749	     29.50124962	     -6.04970228	     -5.48842532	     52.26777366	     52.26777366	     -1.14106109	    -12.02375238	     -0.77582902	     10.74801597	     -6.55691217	     -7.97922790	     21.66536411	     21.66536411	     13.59135981	    -12.30613109	     -1.08308228	    -11.41921429	      5.83111490	      2.85786064	      1.77239203	    -12.00088254	     -1.04915136	     31.51776299	     45.94107078	      0.00000000	      0.00000000	     20.40571705	    -16.38139983	     -0.55422574	     58.46355803	     46.29854161	      0.00000000	      0.00000000
     31.59750000	     -1.39342495	     -5.12512032	      0.37284013	      1.12389747	      0.93621888	      0.41960630	     29.44361413	     -5.74255099	     -5.87221914	     48.25261747	     48.25261747	     -1.20981713	    -11.35763994	     -2.82626644	     10.36167552	     -6.64405177	     -8.37646281	     21.19589407	     21.19589407	     13.53694696	    -12.25649780	     -1.66726780	    -11.41447303	      5.90797665	      2.17132861	      1.61592041	    -11.69490213	     -0.78419929	     28.89682731	     46.04420555	      0.00000000	      0.00000000	     19.84355409	    -17.13432550	     -2.18894454	     62.05054243	     46.52601112	      0.00000000	      0.00000000
